<?xml version="1.0" encoding="utf-8"?>
<!-- Generator: Adobe Illustrator 28.2.0, SVG Export Plug-In . SVG Version: 6.00 Build 0)  -->
<svg version="1.1" id="Layer_1" xmlns="http://www.w3.org/2000/svg" xmlns:xlink="http://www.w3.org/1999/xlink" x="0px" y="0px"
	 viewBox="0 0 29.2 25.1" style="enable-background:new 0 0 29.2 25.1;" xml:space="preserve">
<style type="text/css">
	.st0{fill-rule:evenodd;clip-rule:evenodd;fill:#FBFBFB;}
</style>
<path class="st0" d="M5.6,0.4c-2.8,0-5,2.2-5,5v14c0,2.8,2.2,5,5,5h18c2.8,0,5-2.2,5-5v-14c0-2.8-2.2-5-5-5H5.6z M6.9,8.8
	c-0.4,0.4-0.4,1,0,1.4l3.2,3.2l-3.2,3.2c-0.4,0.4-0.4,1,0,1.4c0.4,0.4,1,0.4,1.4,0l3.9-3.9c0.4-0.4,0.4-1,0-1.4L8.3,8.8
	C7.9,8.5,7.3,8.5,6.9,8.8z M12.6,17.4c0-0.6,0.4-1,1-1h6c0.6,0,1,0.4,1,1s-0.4,1-1,1h-6C13.1,18.4,12.6,18,12.6,17.4z"/>
</svg>
